<?xml version="1.0" encoding="UTF-8"?>
<svg xmlns="http://www.w3.org/2000/svg" version="1.1" viewBox="0 0 4010 772.5">
  <defs>
    <style>
      .cls-1 {
        fill: #fff;
      }
    </style>
  </defs>
  <!-- Generator: Adobe Illustrator 28.7.5, SVG Export Plug-In . SVG Version: 1.2.0 Build 176)  -->
  <g>
    <g id="Capa_1">
      <g>
        <g>
          <path class="cls-1" d="M2999.51,468.49c0,72-54.6,113.4-160.79,113.4h-200.4V161.89h188.39c96.6,0,150.6,40.8,150.6,108.6,0,45.6-23.4,77.4-56.4,93.6,47.4,13.2,78.6,48.6,78.6,104.4ZM2698.32,210.49v134.4h123c61.2,0,96-22.8,96-67.2s-34.8-67.2-96-67.2h-123ZM2938.91,463.69c0-48.6-36-70.2-102.6-70.2h-137.99v139.8h137.99c66.6,0,102.6-21,102.6-69.6Z"/>
          <path class="cls-1" d="M3024.73,422.89c0-94.8,70.2-162,165.59-162s165,67.2,165,162-69.6,162.6-165,162.6-165.59-67.8-165.59-162.6ZM3297.12,422.89c0-67.8-45.6-111.6-106.8-111.6s-107.4,43.8-107.4,111.6,46.2,112.2,107.4,112.2,106.8-44.4,106.8-112.2Z"/>
          <path class="cls-1" d="M3654.13,389.89v191.99h-54.6v-42c-19.2,28.8-54.6,45.6-104.4,45.6-72,0-117.6-38.4-117.6-93.6,0-51,33-93,127.8-93h91.2v-11.4c0-48.6-28.2-76.8-85.2-76.8-37.8,0-76.2,13.2-100.8,34.2l-24-43.2c33-26.4,80.4-40.8,131.4-40.8,87,0,136.2,42,136.2,129ZM3596.54,484.68v-44.4h-88.8c-57,0-73.2,22.2-73.2,49.2,0,31.8,26.4,51.6,70.2,51.6s77.4-19.8,91.8-56.4Z"/>
          <path class="cls-1" d="M3909.74,563.28c-17.4,15-43.8,22.2-69.6,22.2-64.2,0-100.8-35.4-100.8-99.6v-174.59h-54v-47.4h54v-69.6h57.6v69.6h91.2v47.4h-91.2v172.19c0,34.2,18,53.4,49.8,53.4,16.8,0,33-5.4,45-15l18,41.4Z"/>
        </g>
        <g>
          <path class="cls-1" d="M474.72,468.49c0,72-54.6,113.4-160.79,113.4H113.53V161.89h188.39c96.6,0,150.6,40.8,150.6,108.6,0,45.6-23.4,77.4-56.4,93.6,47.4,13.2,78.6,48.6,78.6,104.4ZM173.53,210.49v134.4h123c61.2,0,96-22.8,96-67.2s-34.8-67.2-96-67.2h-123ZM414.12,463.69c0-48.6-36-70.2-102.6-70.2h-137.99v139.8h137.99c66.6,0,102.6-21,102.6-69.6Z"/>
          <path class="cls-1" d="M499.94,422.89c0-94.8,70.2-162,165.59-162s165,67.2,165,162-69.6,162.6-165,162.6-165.59-67.8-165.59-162.6ZM772.33,422.89c0-67.8-45.6-111.6-106.8-111.6s-107.4,43.8-107.4,111.6,46.2,112.2,107.4,112.2,106.8-44.4,106.8-112.2Z"/>
          <path class="cls-1" d="M1129.35,389.89v191.99h-54.6v-42c-19.2,28.8-54.6,45.6-104.4,45.6-72,0-117.6-38.4-117.6-93.6,0-51,33-93,127.8-93h91.2v-11.4c0-48.6-28.2-76.8-85.2-76.8-37.8,0-76.2,13.2-100.8,34.2l-24-43.2c33-26.4,80.4-40.8,131.4-40.8,87,0,136.2,42,136.2,129ZM1071.75,484.68v-44.4h-88.8c-57,0-73.2,22.2-73.2,49.2,0,31.8,26.4,51.6,70.2,51.6s77.4-19.8,91.8-56.4Z"/>
          <path class="cls-1" d="M1384.95,563.28c-17.4,15-43.8,22.2-69.6,22.2-64.2,0-100.8-35.4-100.8-99.6v-174.59h-54v-47.4h54v-69.6h57.6v69.6h91.2v47.4h-91.2v172.19c0,34.2,18,53.4,49.8,53.4,16.8,0,33-5.4,45-15l18,41.4Z"/>
        </g>
        <g>
          <path class="cls-1" d="M1570.23,370.06v109.18h-44.67v-110.09l-125.43-205.74h48.27l101.06,166.48,101.51-166.48h44.67l-125.43,206.64Z"/>
          <path class="cls-1" d="M1872.53,334.87v144.38h-41.06v-31.58c-14.44,21.66-41.06,34.29-78.5,34.29-54.14,0-88.43-28.88-88.43-70.38,0-38.35,24.82-69.93,96.1-69.93h68.58v-8.57c0-36.55-21.21-57.75-64.07-57.75-28.42,0-57.3,9.92-75.8,25.72l-18.05-32.48c24.82-19.85,60.46-30.68,98.81-30.68,65.42,0,102.42,31.58,102.42,97ZM1829.21,406.15v-33.39h-66.77c-42.86,0-55.04,16.7-55.04,37,0,23.91,19.85,38.8,52.79,38.8s58.2-14.89,69.03-42.41Z"/>
          <path class="cls-1" d="M2558.71,465.26c-13.08,11.28-32.93,16.69-52.34,16.69-48.28,0-75.8-26.62-75.8-74.89v-131.29h-40.61v-35.64h40.61v-52.34h43.31v52.34h68.58v35.64h-68.58v129.49c0,25.72,13.53,40.15,37.45,40.15,12.63,0,24.81-4.06,33.84-11.28l13.54,31.13Z"/>
          <path class="cls-1" d="M1895.96,359.68c0-71.28,52.79-121.82,126.33-121.82,42.86,0,78.5,17.59,97.46,50.98l-32.94,21.21c-15.34-23.46-38.8-34.29-64.97-34.29-46.92,0-82.11,32.93-82.11,83.92s35.19,84.37,82.11,84.37c26.17,0,49.63-10.83,64.97-34.29l32.94,20.75c-18.95,33.39-54.59,51.43-97.46,51.43-73.54,0-126.33-50.98-126.33-122.27Z"/>
          <path class="cls-1" d="M2376.93,341.64v137.61h-43.31v-132.64c0-46.92-23.46-69.93-64.52-69.93-46.02,0-75.8,27.52-75.8,79.41v123.17h-43.31V144.47h43.31v129.49c18.05-23.01,47.82-36.09,84.37-36.09,58.2,0,99.26,33.39,99.26,103.77Z"/>
        </g>
        <path class="cls-1" d="M1448.35,601.88c111.65-93.53,274.46-109.68,426.17-86.98,97.6,13.15,192.01,37.83,288.96,52.44,139.26,22.39,298.92,15.82,404.56-70.48-84.55,109.03-267.06,130.38-412.81,110.68-248.37-32.09-468.37-131.21-706.88-5.67h0Z"/>
      </g>
    </g>
  </g>
</svg>