<?xml version="1.0" encoding="UTF-8" standalone="no"?>
<!-- Created with Inkscape (http://www.inkscape.org/) -->

<svg
   xmlns:dc="http://purl.org/dc/elements/1.1/"
   xmlns:cc="http://creativecommons.org/ns#"
   xmlns:rdf="http://www.w3.org/1999/02/22-rdf-syntax-ns#"
   xmlns:svg="http://www.w3.org/2000/svg"
   xmlns="http://www.w3.org/2000/svg"
   xmlns:sodipodi="http://sodipodi.sourceforge.net/DTD/sodipodi-0.dtd"
   xmlns:inkscape="http://www.inkscape.org/namespaces/inkscape"
   width="297mm"
   height="210mm"
   viewBox="0 0 297 210"
   version="1.1"
   id="svg1086"
   inkscape:version="0.92.4 5da689c313, 2019-01-14"
   sodipodi:docname="logo.svg"
   inkscape:export-filename="/media/archivos/martin/Documentos/Personal/Trabajo/Freelance/Teczara/logo-fondo.png"
   inkscape:export-xdpi="117.62"
   inkscape:export-ydpi="117.62">
  <defs
     id="defs1080" />
  <sodipodi:namedview
     id="base"
     pagecolor="#ffffff"
     bordercolor="#666666"
     borderopacity="1.0"
     inkscape:pageopacity="0.0"
     inkscape:pageshadow="2"
     inkscape:zoom="0.35"
     inkscape:cx="1177.7683"
     inkscape:cy="674.73313"
     inkscape:document-units="mm"
     inkscape:current-layer="layer1"
     showgrid="false"
     inkscape:window-width="1680"
     inkscape:window-height="1003"
     inkscape:window-x="0"
     inkscape:window-y="24"
     inkscape:window-maximized="1" />
  <metadata
     id="metadata1083">
    <rdf:RDF>
      <cc:Work
         rdf:about="">
        <dc:format>image/svg+xml</dc:format>
        <dc:type
           rdf:resource="http://purl.org/dc/dcmitype/StillImage" />
        <dc:title></dc:title>
      </cc:Work>
    </rdf:RDF>
  </metadata>
  <g
     inkscape:label="Capa 1"
     inkscape:groupmode="layer"
     id="layer1"
     transform="translate(0,-87)">
    <g
       transform="matrix(0.97537999,-0.12676407,0.09299968,1.3295009,-78.644505,40.143889)"
       id="g1040-0-09-3-6">
      <path
         style="fill:#26211a;fill-opacity:1;stroke:none;stroke-width:2.12937069;stroke-miterlimit:4;stroke-dasharray:none;stroke-opacity:1"
         id="path1149-8-6-6-0-4"
         d="m 220.92985,143.50025 c -3.04527,-1.07292 -6.17452,-1.94487 -9.2956,-2.81972 -3.00865,-0.84502 -6.03284,-1.64476 -9.05245,-2.45776 -1.33036,-0.34745 -2.65334,-0.71584 -3.9767,-1.0835 -0.40534,-0.20633 -1.90362,-0.38877 -2.19622,-0.62692 -3.52011,-1.32887 -5.76875,-1.45069 -7.35407,-3.96108 -0.16941,-0.0835 -0.29204,-0.23437 -0.43806,-0.35155 -0.0881,-0.26502 -0.25315,-0.51155 -0.26446,-0.7951 -0.0599,-1.50772 0.53789,-3.19307 1.54782,-4.39993 0.72931,-0.87162 1.45736,-1.1941 2.4203,-1.77988 5.35527,-2.41694 10.96325,-4.13758 16.55658,-5.77495 7.45981,-2.09093 14.89934,-4.27654 22.38357,-6.25615 4.13429,-1.25194 8.3524,-2.07235 12.53431,-3.0747 2.453,-0.64075 4.95464,-0.96193 7.44088,-1.35563 1.4426,-0.36441 2.14577,-1.20056 3.59259,-1.50138 l 3.32848,1.54177 -6.13037,4.13676 12.06813,-2.2146 4.4903,2.07994 -31.87737,7.09874 38.28689,-6.74924 9.9163,4.13998 -18.28231,4.80036 17.94779,-1.90143 7.42987,3.10185 v 0 c -1.61691,0.1746 -3.22254,0.55654 -4.84942,0.51228 -2.67059,0.34418 -5.33593,0.77746 -8.01468,0.88907 -4.84412,0.76356 -9.69448,1.41994 -14.54444,2.11458 -1.96481,0.38121 -5.31899,1.01814 -7.24141,1.44952 -5.12412,1.14982 -10.78191,1.47046 -15.74976,3.27627 -1.37449,0.49191 -9.02705,1.94952 -10.44672,2.55272 -8.18812,3.14515 -5.89127,3.47231 -0.91357,5.25674 1.35281,0.81204 2.46953,0.77675 3.93568,1.38346 0.22544,-0.0159 2.19996,0.54718 2.42275,0.56584 0.76083,0.0638 1.4585,0.50056 2.20365,0.62818 1.12418,0.32984 2.24919,0.65719 3.3646,1.01064 2.51531,0.76741 5.02513,1.54966 7.55451,2.27945 3.74835,1.08898 7.51387,2.13548 11.31813,3.06048 l -15.81897,-1.88282 -13.49492,-4.23762 11.33579,4.8245 -9.7484,-2.00417 -19.71898,-5.79254 13.90693,5.10078 -6.577,-0.78279 z"
         inkscape:connector-curvature="0"
         sodipodi:nodetypes="cccccccccccccccccccccccccccccsccccccccccccccccc" />
    </g>
    <text
       xml:space="preserve"
       style="font-style:normal;font-weight:normal;font-size:63.38238144px;line-height:1.25;font-family:sans-serif;letter-spacing:0px;word-spacing:0px;fill:#000000;fill-opacity:1;stroke:none;stroke-width:1.58455932"
       x="36.291321"
       y="251.21077"
       id="text1294-5"><tspan
         sodipodi:role="line"
         id="tspan1292-0"
         x="36.291321"
         y="251.21077"
         style="font-style:normal;font-variant:normal;font-weight:normal;font-stretch:normal;font-size:63.38184357px;font-family:'Open Sans';-inkscape-font-specification:'Open Sans, Normal';font-variant-ligatures:normal;font-variant-caps:normal;font-variant-numeric:normal;font-feature-settings:normal;text-align:start;writing-mode:lr-tb;text-anchor:start;stroke-width:1.58455932">Tec<tspan
   style="font-style:normal;font-variant:normal;font-weight:normal;font-stretch:normal;font-size:63.38184357px;font-family:'Open Sans';-inkscape-font-specification:'Open Sans, Normal';font-variant-ligatures:normal;font-variant-caps:normal;font-variant-numeric:normal;font-feature-settings:normal;text-align:start;writing-mode:lr-tb;text-anchor:start;fill:#d88b15;fill-opacity:1;stroke-width:1.58455932"
   id="tspan1296-4">z</tspan>ara</tspan></text>
    <path
       sodipodi:nodetypes="cccccccccccccccccccccccccccccsccccccccccccccccc"
       inkscape:connector-curvature="0"
       d="m 142.15156,127.7872 c 3.07008,1.04041 6.20337,1.803 9.32897,2.57047 3.01317,0.74206 6.03728,1.42196 9.05815,2.12007 1.32992,0.29331 2.6546,0.61536 3.97956,0.93642 0.41455,0.22293 1.89292,0.27552 2.20045,0.55508 3.55703,1.3205 5.76165,1.19742 7.5414,4.33403 0.173,0.0895 0.30664,0.27457 0.45997,0.41185 0.11058,0.34118 0.2945,0.64803 0.3319,1.02357 0.19864,1.99692 -0.22772,4.31338 -1.10052,6.04592 -0.63031,1.25127 -1.31044,1.7723 -2.1952,2.67316 -4.99865,3.89218 -10.30853,6.89066 -15.61189,9.77658 -7.08169,3.72553 -14.13479,7.57436 -21.25066,11.15499 -3.91608,2.18853 -7.95404,3.81397 -11.93978,5.67673 -2.33302,1.16283 -4.74319,1.90696 -7.13159,2.74555 -1.3732,0.66735 -1.98131,1.86815 -3.36452,2.45149 l -3.38992,-1.62785 5.59471,-6.27695 -11.56504,4.47413 -4.573178,-2.19607 30.432358,-13.4787 -36.716579,13.82653 -10.057188,-4.24708 17.385767,-8.69963 -17.329083,4.80309 -7.535408,-3.18207 v 0 c 1.560855,-0.4371 3.091434,-1.14842 4.682386,-1.29581 2.572832,-0.79611 5.132246,-1.71004 7.734665,-2.19799 4.653857,-1.62922 9.323739,-3.11673 13.9897,-4.65505 1.88098,-0.75589 5.09336,-2.02788 6.92832,-2.84509 4.89103,-2.17824 10.37972,-3.32174 15.05732,-6.35231 1.29489,-0.82823 8.62349,-3.7362 9.95211,-4.71812 7.69404,-5.21944 5.42331,-5.36323 0.40219,-7.10464 -1.39502,-0.90812 -2.48096,-0.71964 -3.96743,-1.34042 -0.21841,0.0497 -2.1967,-0.4486 -2.41573,-0.44517 -0.74803,0.0116 -1.46915,-0.48059 -2.20782,-0.55581 -1.12718,-0.29601 -2.25494,-0.58861 -3.37576,-0.91714 -2.52476,-0.70142 -5.04551,-1.42327 -7.5805,-2.07289 -3.75733,-0.97265 -7.52748,-1.88664 -11.32409,-2.63417 l 15.60459,0.49792 13.55679,3.92326 -11.50539,-4.97721 9.69478,1.42879 19.7722,5.20154 -14.0389,-5.0186 6.48787,0.207 z"
       id="path1149-8-9-1-3-9-9"
       style="fill:#d88b15;fill-opacity:1;stroke:none;stroke-width:2.43583393;stroke-miterlimit:4;stroke-dasharray:none;stroke-opacity:1" />
    <circle
       style="fill:#26211a;fill-opacity:1;stroke:none;stroke-width:0.61424994;stroke-miterlimit:4;stroke-dasharray:none;stroke-opacity:1"
       id="path1684"
       cx="162.45145"
       cy="142.52361"
       r="3.6081383" />
    <circle
       style="fill:#ffffff;fill-opacity:1;stroke:none;stroke-width:0.61424994;stroke-miterlimit:4;stroke-dasharray:none;stroke-opacity:1"
       id="path1684-3"
       cx="-129.89163"
       cy="-188.18524"
       r="3.6081383"
       transform="scale(-1)" />
  </g>
</svg>
